M48
;Layer_Color=9474304
;FILE_FORMAT=2:5
INCH
;TYPE=PLATED
T01F00S00C0.00787
T02F00S00C0.01378
T03F00S00C0.04134
T04F00S00C0.04331
T05F00S00C0.12205
T06F00S00C0.12992
%
T01
X0005906Y0005906
X0009252Y0009547
X0006988Y0015453
X0009252Y0021752
X0015846Y0024705
X0017717Y0029528
X0023622
X0029528
X0035433
X0041339
X0047244
X0053150
X0056102Y0035433
X0062008
X0067913
X0073819
X0079724
X0085630
X0091535
X0097441
X0103346
X0100394Y0041339
X0106299
X0109252Y0047244
X0115157
X0121063
X0118110Y0053150
X0124016
Y0041339
X0126969Y0035433
X0124016Y0029528
X0129921
X0135827
X0141732
X0147638
X0153543
X0144685Y0035433
X0141732Y0041339
X0147638
X0150591Y0047244
X0144685
X0138779
X0132874
X0135827Y0064961
X0141732
X0150591Y0070866
X0132874
X0126969
X0121063
X0118110Y0076772
X0124016
X0129921
X0135827
X0138779Y0082677
X0141732Y0088583
X0138779Y0094488
X0141732Y0100394
X0153543
X0150591Y0094488
X0129921Y0100394
X0124016
Y0112205
Y0124016
X0126969Y0129921
X0124016Y0135827
X0129921
X0141732
X0150591Y0141732
X0153543Y0147638
X0135827
X0129921
X0124016
X0126969Y0153543
X0132874
X0138779
X0150591Y0129921
X0100394Y0124016
X0088583
X0091535Y0129921
X0085630
X0079724
Y0153543
X0085630
X0091535
X0088583Y0147638
X0100394
Y0100394
X0088583
X0091535Y0106299
X0085630
X0079724
X0053150Y0112205
X0047244
X0041339
X0035433
X0032480Y0118110
X0044291
X0050197
X0056102
X0053150Y0124016
X0047244
X0050197Y0129921
X0056102
X0053150Y0135827
X0047244
X0041339
X0035433
X0032480Y0129921
X0044291
X0047244Y0147638
X0053150
X0050197Y0153543
X0044291
X0038386
X0032480
Y0094488
X0038386
X0044291
X0050197
X0056102
X0053150Y0100394
X0047244
Y0088583
X0053150
X0059055
X0050197Y0082677
X0047244Y0076772
X0041339
X0035433
X0032480Y0070866
Y0059055
X0035433Y0053150
X0041339
X0047244
X0053150
X0059055
X0062008Y0047244
X0067913
X0073819
X0079724
X0085630
X0091535
X0097441
X0103346
X0106299Y0053150
X0112205
Y0029528
X0118110
X0106299
X0094488Y0041339
X0088583
X0076772
X0070866
X0064961
X0059055
X0053150
X0047244
X0050197Y0047244
X0056102
X0050197Y0035433
X0044291
X0038386
X0032480
X0029528Y0041339
X0032480Y0023622
X0038386
X0035433Y0017717
X0029528
X0024606Y0015748
X0022441Y0021555
X0026575Y0023622
X0032480Y0011811
X0038386
X0035433Y0005906
X0041339
X0029528
X0022146Y0009547
X0015551Y0006791
X0011811Y0029528
X0005906
X0047244Y0064961
X0053150
X0056102Y0070866
X0050197
X0124016Y0088583
X0129921
X0156496Y0094488
X0159449Y0100394
X0165354Y0088583
X0168307Y0082677
Y0070866
X0174213
X0171260Y0064961
X0177165
X0183071
X0188976
X0194882
X0200787
X0206693
X0209646Y0059055
X0215551
X0221457
X0227362
X0233268
X0230315Y0064961
X0236220
X0233268Y0070866
Y0082677
X0230315Y0088583
X0236220
Y0100394
X0218504
X0212598
X0215551Y0106299
X0221457
X0218504Y0112205
X0221457Y0118110
X0218504Y0124016
X0200787Y0112205
Y0100394
X0218504Y0088583
X0215551Y0082677
X0218504Y0064961
X0224409
Y0053150
X0230315
X0236220
X0248031
X0253937
X0259842
X0265748
X0268701Y0059055
X0262795
X0256890
X0250984
X0253937Y0064961
X0259842
X0265748
X0268701Y0070866
X0262795
X0256890
X0250984
Y0082677
X0259842Y0088583
X0265748
X0277559
X0283465
X0289370
X0295275
X0301181
X0304134Y0094488
Y0106299
X0298228
X0292323
X0286417
X0280512
X0274606
X0271654Y0100394
X0277559
X0283465
X0289370
X0286417Y0094488
X0280512
X0274606
X0277559Y0112205
X0283465
X0289370
X0301181
X0304134Y0118110
X0301181Y0124016
X0304134Y0129921
X0298228
X0292323
X0286417
X0280512
X0274606
X0277559Y0135827
X0283465
X0286417Y0141732
X0280512
X0274606
X0277559Y0147638
X0283465
X0289370
X0295275
X0301181
X0304134Y0153543
Y0141732
X0286417Y0153543
X0280512
X0274606
X0277559Y0124016
X0283465
X0289370
X0274606Y0118110
X0277559Y0076772
X0280512Y0070866
X0286417
X0292323
X0298228
X0304134
X0301181Y0064961
X0307086
X0310039Y0059055
X0304134
X0298228
X0292323
X0286417
X0280512
X0277559Y0064961
X0283465
X0289370
X0295275
Y0053150
X0301181
X0307086
X0310039Y0047244
X0304134
X0298228
X0292323
X0286417
X0280512
X0277559Y0053150
X0283465
X0289370
X0283465Y0041339
X0280512Y0035433
X0277559Y0029528
X0283465
X0289370
X0295275
X0301181
X0307086
X0310039Y0035433
X0304134
X0301181Y0041339
X0307086
X0312402Y0021752
X0310138Y0015453
X0312402Y0009547
X0307086Y0005906
X0271654Y0029528
X0265748
X0259842
X0253937
X0248031
X0242126
X0236220
X0230315
X0224409
X0218504
X0212598
X0206693
X0200787
X0194882
X0188976
X0183071
X0177165
X0171260
X0165354
X0159449
X0162401Y0035433
X0165354Y0041339
X0156496Y0047244
X0162401Y0059055
X0168307
X0174213
X0180118
X0186024
X0191929
X0197835
X0203740
X0212598Y0053150
X0218504
X0224409Y0041339
X0221457Y0035433
X0203740
X0200787Y0041339
X0206693
X0183071
X0186024Y0035433
X0165354Y0064961
X0159449
X0162401Y0070866
X0177165Y0088583
X0180118Y0141732
X0159449Y0147638
X0156496Y0129921
X0245079Y0047244
X0250984
X0256890
X0262795
X0268701
X0265748Y0041339
X0259842
X0262795Y0035433
X0245079
X0242126Y0041339
X0286417Y0082677
X0304134
X0312992Y0064961
X0318898
X0324803
X0327756Y0059055
X0321850
X0315945
X0312992Y0053150
X0318898
X0324803
X0327756Y0047244
X0321850
X0315945
X0312992Y0041339
X0318898
X0324803
X0327756Y0035433
X0321850
X0315945
X0312992Y0029528
X0318898
X0318996Y0024705
X0325590Y0021555
X0327756Y0015748
X0325295Y0009547
X0318701Y0006791
X0324803Y0029528
X0327756Y0271654
X0321850
X0315945
X0312992Y0277559
X0318898
X0324803
X0327756Y0283465
X0321850
X0315945
X0312992Y0289370
X0318898
X0324803
X0327756Y0295275
X0321850
X0315945
X0312992Y0301181
X0318898
X0324803
X0327756Y0307086
X0321850
X0315945
X0310039
X0304134
X0298228
X0292323
X0286417
X0283465Y0301181
X0277559
Y0289370
X0283465
X0286417Y0295275
X0292323
X0295275Y0301181
X0301181
X0307086
X0310039Y0295275
X0304134
X0307086Y0289370
X0310039Y0283465
X0304134
X0298228
X0292323
X0286417
Y0271654
X0289370Y0265748
X0295275
X0301181
X0304134Y0271654
X0310039
X0307086Y0277559
X0301181
X0295275
X0298228Y0271654
X0304134Y0259842
Y0248031
X0298228
X0292323
X0286417
X0283465Y0253937
X0286417Y0259842
X0283465Y0242126
X0289370
X0301181
X0304134Y0236220
X0301181Y0230315
X0304134Y0224409
X0298228
X0292323
X0286417
X0283465Y0230315
X0289370
Y0218504
X0283465
X0286417Y0212598
X0283465Y0206693
X0289370
X0295275
X0301181
X0304134Y0212598
Y0200787
Y0188976
X0298228
X0292323
X0286417
X0280512
X0274606
X0268701
X0265748Y0194882
X0262795Y0200787
X0259842Y0206693
X0256890Y0212598
X0250984
X0245079
X0239173
X0248031Y0218504
X0259842
X0262795Y0224409
X0259842Y0230315
X0265748
X0248031
Y0242126
Y0253937
X0242126
X0236220
X0230315
X0224409
X0218504
X0221457Y0259842
X0227362
X0233268
X0239173
X0245079
X0242126Y0265748
X0248031
X0245079Y0271654
X0239173
X0236220Y0277559
X0230315
X0233268Y0283465
X0230315Y0301181
X0242126
X0248031
X0245079Y0295275
X0248031Y0289370
X0259842
X0265748
X0262795Y0295275
X0256890
X0259842Y0301181
X0265748
X0262795Y0307086
X0256890
Y0283465
X0262795
X0259842Y0277559
X0265748
X0262795Y0271654
X0256890
X0259842Y0265748
X0265748
X0262795Y0259842
X0256890
X0259842Y0253937
X0265748
X0262795Y0248031
X0236220Y0242126
Y0230315
X0224409Y0242126
X0230315Y0265748
X0236220
X0248031Y0277559
X0209646Y0259842
X0206693Y0253937
X0200787
X0197835Y0259842
X0191929
X0186024
X0183071Y0253937
X0188976
X0194882Y0265748
X0197835Y0283465
X0180118
X0177165Y0301181
X0171260
X0165354
X0159449
X0162401Y0295275
X0168307
X0165354Y0289370
X0156496Y0295275
Y0307086
X0180118
X0165354Y0253937
X0159449
X0156496Y0248031
X0159449Y0242126
X0162401Y0236220
X0156496
X0159449Y0230315
X0156496Y0224409
Y0212598
X0162401
X0165354Y0206693
X0168307Y0200787
X0162401
X0165354Y0194882
X0162401Y0188976
X0165354Y0183071
X0162401Y0177165
X0191929Y0188976
X0188976Y0194882
X0194882
X0200787
X0206693
X0224409
X0227362Y0200787
X0233268
X0236220Y0194882
Y0183071
X0224409Y0171260
X0221457Y0165354
X0206693Y0171260
X0259842
X0265748
X0268701Y0177165
X0274606
X0280512
X0286417
X0283465Y0183071
X0289370
X0301181
X0304134Y0177165
X0301181Y0171260
X0304134Y0165354
X0298228
X0292323
X0286417
X0280512
X0274606
X0277559Y0171260
X0283465
X0289370
Y0159449
X0283465
X0277559
X0259842
X0262795Y0165354
X0256890Y0177165
X0265748Y0183071
X0277559
Y0194882
Y0206693
X0286417Y0200787
X0245079
X0153543Y0206693
X0150591Y0212598
X0144685
X0138779
X0132874
X0126969
X0121063
X0115157
X0118110Y0206693
X0124016
X0129921
Y0194882
X0124016
Y0183071
X0121063Y0177165
X0118110Y0171260
X0112205
X0106299
X0100394
X0103346Y0165354
X0109252
X0115157
X0121063
X0118110Y0159449
X0124016
X0129921
Y0171260
X0135827
X0141732
X0153543
X0150591Y0177165
X0147638Y0183071
X0153543
X0150591Y0188976
X0147638Y0194882
X0153543
Y0218504
X0147638
X0150591Y0224409
X0147638Y0230315
X0153543
X0144685Y0236220
X0138779
X0126969
X0129921Y0242126
Y0253937
X0135827
X0141732
X0153543
X0150591Y0248031
X0147638Y0242126
X0129921Y0230315
X0126969Y0224409
X0121063
X0115157
X0118110Y0230315
X0121063Y0248031
X0124016Y0253937
X0126969Y0259842
X0124016Y0265748
X0129921
X0135827
X0138779Y0271654
X0132874
X0126969
X0121063
X0115157
X0109252
X0103346
X0097441
X0091535
X0085630
X0079724
X0073819
X0067913
X0064961Y0265748
X0070866
X0076772
X0082677
X0088583
X0094488
X0106299
X0112205
X0118110
X0109252Y0259842
X0106299Y0253937
X0097441Y0248031
X0091535
X0085630Y0259842
X0076772Y0253937
X0064961
X0067913Y0259842
Y0248031
X0064961Y0242126
X0067913Y0236220
X0073819
X0079724
X0085630
X0088583Y0230315
X0094488
X0097441Y0224409
X0091535
X0085630
Y0212598
X0091535
X0097441
X0103346
X0100394Y0206693
X0094488
X0088583
Y0194882
X0094488
X0100394
X0106299
X0112205
X0115157Y0188976
X0109252
X0103346
X0097441
X0088583Y0183071
X0082677
X0076772
X0070866
X0064961
X0067913Y0188976
X0064961Y0194882
X0067913Y0200787
X0064961Y0206693
X0067913Y0212598
X0064961Y0218504
X0067913Y0224409
X0064961Y0230315
X0047244
X0041339
X0035433
X0038386Y0236220
X0044291
X0047244Y0242126
X0053150
X0050197Y0248031
X0047244Y0253937
X0053150
X0050197Y0259842
X0044291
X0041339Y0253937
X0035433
X0029528Y0265748
X0032480Y0271654
X0029528Y0277559
X0035433
X0041339
X0047244
X0053150
X0050197Y0283465
X0047244Y0289370
X0056102Y0295275
X0062008
X0059055Y0301181
X0053150
X0062008Y0307086
X0070866Y0301181
X0076772
X0082677
X0088583
X0094488
X0100394
X0106299
X0109252Y0295275
X0103346
X0097441
X0091535
X0085630
X0079724
X0073819
X0076772Y0289370
X0073819Y0283465
X0076772Y0277559
X0088583
Y0289370
X0094488
X0100394
X0106299
X0112205
Y0277559
X0124016
X0129921
X0126969Y0283465
X0124016Y0301181
X0129921
X0135827
X0141732
X0147638
X0153543
X0150591Y0307086
X0126969
X0118110Y0301181
X0103346Y0283465
X0091535Y0307086
X0085630
X0038386Y0295275
X0032480
X0029528Y0301181
Y0289370
X0044291Y0271654
X0050197
X0047244Y0265748
X0053150
X0050197Y0224409
X0047244Y0218504
X0053150
X0050197Y0212598
X0044291
X0038386
X0032480
X0047244Y0206693
X0053150
X0050197Y0200787
X0047244Y0194882
X0053150
X0050197Y0188976
X0044291
X0041339Y0194882
X0035433
X0032480Y0188976
X0047244Y0183071
X0053150
X0050197Y0177165
X0044291
X0047244Y0159449
X0053150
X0064961
X0067913Y0165354
X0064961Y0171260
X0076772
X0082677
X0088583
X0085630Y0165354
X0088583Y0159449
X0100394
X0106299
X0112205
X0135827Y0183071
X0141732
X0135827Y0218504
X0106299
X0076772
X0032480Y0236220
X0029528Y0312992
X0035433
X0041339
X0047244
X0053150
X0059055
X0062008Y0318898
X0056102
X0050197
X0044291
X0038386
X0032480
X0026575
X0020669
X0014764
X0008858
X0005906Y0324803
X0009252Y0328445
X0006988Y0334350
X0009252Y0340650
X0015846Y0343602
X0022441Y0340453
X0026575Y0342520
X0032480
X0038386
X0044291
X0050197
X0056102
X0062008
X0067913
X0073819
X0079724
X0076772Y0336614
X0070866
X0064961
X0059055
X0053150
X0047244
X0041339
X0035433
X0029528
X0024606Y0334646
X0022146Y0328445
X0015551Y0325689
X0029528Y0324803
X0035433
X0041339
X0047244
X0053150
X0059055
X0064961
X0070866
X0076772
X0082677
X0088583
X0094488
X0100394
X0106299
X0112205
X0118110
X0124016
X0129921
X0135827
X0141732
X0147638
X0153543
X0150591Y0318898
X0144685
X0141732Y0312992
X0147638
X0153543
X0135827
X0129921
X0124016
X0118110
X0112205
X0106299
X0100394
X0094488
X0088583
X0082677
X0085630Y0318898
X0091535
X0097441
X0121063
X0132874
X0079724Y0330709
X0073819
X0067913
X0062008
X0056102
X0050197
X0044291
X0038386
X0032480
X0162401
X0168307
X0174213
X0180118
X0186024
X0191929
X0188976Y0336614
X0194882
X0191929Y0342520
X0186024
X0180118
X0174213
X0168307
X0162401
X0165354Y0336614
X0171260
X0177165
X0183071
Y0324803
X0188976
X0194882
X0177165
X0171260
X0165354
X0159449
X0162401Y0318898
X0156496
X0159449Y0312992
X0180118Y0318898
X0209646
X0218504Y0312992
X0227362Y0318898
X0233268
X0239173
X0245079
X0242126Y0324803
X0248031
X0250984Y0330709
X0245079
X0239173
X0233268
X0230315Y0336614
X0236220
X0242126
X0248031
X0253937
X0259842
X0262795Y0342520
X0268701
X0274606
X0280512
X0286417
X0292323
X0304134
X0312402Y0340650
X0310138Y0334350
X0312402Y0328445
X0307086Y0324803
X0301181
X0295275
X0298228Y0330709
X0304134
Y0318898
X0310039
X0307086Y0312992
X0295275
X0292323Y0318898
X0283465Y0324803
X0259842
X0262795Y0318898
X0256890
X0259842Y0312992
X0265748
X0248031
X0236220Y0324803
X0230315
X0233268Y0342520
X0239173
X0250984
X0256890
X0318996Y0343602
X0325590Y0340453
X0327756Y0334646
X0325295Y0328445
X0318701Y0325689
X0315945Y0318898
X0321850
X0327756
X0324803Y0312992
X0318898
X0312992
T02
X0029724Y0055905
X0059842Y0096850
Y0120709
Y0144567
X0080299Y0140866
X0080299Y0148346
Y0124488
X0080299Y0117008
X0080299Y0100630
X0080299Y0093150
X0096233Y0086520
X0107283Y0092283
Y0097402
X0107264Y0102972
X0107283Y0116142
Y0121260
X0107264Y0126831
X0107283Y0140000
Y0145118
X0107264Y0150689
X0123740Y0142776
X0118300Y0134216
X0123740Y0118917
X0118300Y0110358
X0123819Y0094980
X0118300Y0086500
X0131818Y0059816
X0155512Y0059744
X0145866Y0128543
X0148711Y0153839
X0096233Y0134237
Y0110378
X0169921Y0120276
X0170315Y0131693
X0178735Y0127471
X0199606Y0127657
X0214862Y0125969
X0221516Y0125787
X0229685
Y0116732
X0213583Y0115905
X0205118
X0216634Y0131791
X0223819Y0135138
X0229685Y0134843
X0225590Y0139665
X0228150Y0145472
X0231165Y0150691
X0237736Y0150689
X0243266Y0150451
X0246555Y0152264
X0243464Y0143110
X0249842
X0243464Y0134843
Y0125787
X0249842
X0254626Y0100492
X0256004Y0084842
X0249764Y0077559
X0243602Y0091831
X0225787Y0101870
X0222835Y0077811
X0187386
X0183465Y0091339
X0160327Y0077811
X0170315Y0148622
X0175886Y0154035
X0191043Y0142421
X0223100Y0150954
X0225382Y0153937
X0228051Y0167717
X0229134Y0172819
X0233366Y0164764
X0208268Y0159744
X0211122Y0178839
X0199705Y0175492
X0194685Y0169488
X0184744Y0171161
X0180512Y0162992
X0173283Y0157087
X0170315Y0166733
X0166732Y0188189
X0194783Y0191043
X0189961Y0178642
X0193307Y0221220
X0205315
X0217323
X0229331
X0241338
X0253346
Y0241496
Y0247874
X0241338Y0241496
X0229331
X0217323
X0205315
X0193307
X0181299
X0169291
Y0247874
X0182283Y0257776
X0188878Y0273465
X0201870
X0207480Y0273917
X0201870Y0267087
X0214961Y0261614
X0222638Y0266890
Y0273268
X0236319Y0290059
X0234941Y0294193
X0197933Y0306745
X0191240Y0306502
X0186319Y0287165
X0167815Y0273169
X0169291Y0221220
X0181299
X0272638Y0271063
X0281299Y0271161
X0289862Y0271260
X0142323Y0275098
X0135787Y0282185
X0135772Y0260641
X0100155Y0260630
X0093275Y0235347
X0075968Y0227807
X0079158Y0207874
X0072835Y0201870
X0079158Y0192585
Y0177297
X0072776Y0177264
X0079158Y0162008
X0142126Y0161909
X0152362Y0159941
X0151870Y0166043
X0135772Y0177297
Y0207874
X0147047Y0207874
X0155905Y0192126
X0121567Y0235347
X0186319Y0313123
X0197933
X0216339Y0317028
X0212598Y0321654
X0224311Y0317815
X0268406Y0326083
X0276772Y0339173
T03
X0099626Y0306929
X0110531
X0121437
X0132343
X0143248
X0137795Y0318110
X0126890
X0115984
X0105079
T04
X0038780Y0045472
Y0065158
Y0084842
Y0104528
Y0124213
Y0143898
X0115354Y0037795
X0135039
X0154724
X0174409
X0194095
X0213779
X0233465
X0253150
X0272835
X0292520
X0295669Y0077953
Y0097638
Y0117323
Y0137008
Y0156693
Y0176378
Y0196063
Y0215748
Y0235433
Y0255118
X0038780Y0245866
Y0265551
Y0285236
Y0304921
X0038780Y0222638
Y0202953
Y0183268
Y0163583
T05
X0072244Y0312520
X0170630
T06
X0015748Y0015748
X0318898
X0015748Y0334646
X0318898
M30
