G04*
G04 #@! TF.GenerationSoftware,Altium Limited,Altium Designer,25.8.1 (18)*
G04*
G04 Layer_Color=32896*
%FSLAX25Y25*%
%MOIN*%
G70*
G04*
G04 #@! TF.SameCoordinates,B9BAA01D-C35C-4D11-A711-CD2CE8E5E435*
G04*
G04*
G04 #@! TF.FilePolarity,Positive*
G04*
G01*
G75*
%ADD11C,0.00787*%
%ADD12C,0.00591*%
D11*
X155797Y344242D02*
X157108D01*
X156452D01*
Y340962D01*
X157108Y340306D01*
X157764D01*
X158420Y340962D01*
X153829Y340306D02*
X152517D01*
X151861Y340962D01*
Y342274D01*
X152517Y342930D01*
X153829D01*
X154484Y342274D01*
Y340962D01*
X153829Y340306D01*
X149893Y342930D02*
X148581D01*
X147925Y342274D01*
Y340306D01*
X149893D01*
X150549Y340962D01*
X149893Y341618D01*
X147925D01*
X145957Y340306D02*
X144645D01*
X143989Y340962D01*
Y342274D01*
X144645Y342930D01*
X145957D01*
X146613Y342274D01*
Y340962D01*
X145957Y340306D01*
X136118Y343586D02*
X136774Y344242D01*
X138086D01*
X138742Y343586D01*
Y340962D01*
X138086Y340306D01*
X136774D01*
X136118Y340962D01*
Y342274D01*
X137430D01*
X134150Y342930D02*
X132838D01*
X132182Y342274D01*
Y340306D01*
X134150D01*
X134806Y340962D01*
X134150Y341618D01*
X132182D01*
X130870Y340306D02*
X128902D01*
X128246Y340962D01*
X128902Y341618D01*
X130214D01*
X130870Y342274D01*
X130214Y342930D01*
X128246D01*
X126934Y338995D02*
Y342930D01*
X124967D01*
X124311Y342274D01*
Y340962D01*
X124967Y340306D01*
X126934D01*
X122343Y342930D02*
X121031D01*
X120375Y342274D01*
Y340306D01*
X122343D01*
X122999Y340962D01*
X122343Y341618D01*
X120375D01*
X119063Y342930D02*
Y340306D01*
Y341618D01*
X118407Y342274D01*
X117751Y342930D01*
X117095D01*
X108568Y340306D02*
X111191D01*
X108568Y342930D01*
Y343586D01*
X109223Y344242D01*
X110535D01*
X111191Y343586D01*
X104632Y340306D02*
X107256D01*
X104632Y342930D01*
Y343586D01*
X105288Y344242D01*
X106600D01*
X107256Y343586D01*
X103320Y340306D02*
X102008D01*
X102664D01*
Y344242D01*
X103320Y343586D01*
X100040D02*
X99384Y344242D01*
X98072D01*
X97416Y343586D01*
Y340962D01*
X98072Y340306D01*
X99384D01*
X100040Y340962D01*
Y343586D01*
X96104Y340306D02*
X94792D01*
X95448D01*
Y344242D01*
X96104Y343586D01*
X92825D02*
X92169Y344242D01*
X90857D01*
X90201Y343586D01*
Y342930D01*
X90857Y342274D01*
X91513D01*
X90857D01*
X90201Y341618D01*
Y340962D01*
X90857Y340306D01*
X92169D01*
X92825Y340962D01*
X88889Y343586D02*
X88233Y344242D01*
X86921D01*
X86265Y343586D01*
Y340962D01*
X86921Y340306D01*
X88233D01*
X88889Y340962D01*
Y343586D01*
X139398Y332382D02*
Y336318D01*
X138086Y335006D01*
X136774Y336318D01*
Y332382D01*
X132838Y336318D02*
X135462D01*
Y332382D01*
X132838D01*
X135462Y334350D02*
X134150D01*
X131526Y332382D02*
Y335006D01*
X130214Y336318D01*
X128902Y335006D01*
Y332382D01*
Y334350D01*
X131526D01*
X127590Y336318D02*
Y333038D01*
X126934Y332382D01*
X125622D01*
X124967Y333038D01*
Y336318D01*
X117095Y332382D02*
X119719D01*
X117095Y335006D01*
Y335662D01*
X117751Y336318D01*
X119063D01*
X119719Y335662D01*
X115783D02*
X115127Y336318D01*
X113815D01*
X113159Y335662D01*
Y333038D01*
X113815Y332382D01*
X115127D01*
X115783Y333038D01*
Y335662D01*
X109223Y332382D02*
X111847D01*
X109223Y335006D01*
Y335662D01*
X109880Y336318D01*
X111191D01*
X111847Y335662D01*
X107912D02*
X107256Y336318D01*
X105944D01*
X105288Y335662D01*
Y335006D01*
X105944Y334350D01*
X106600D01*
X105944D01*
X105288Y333694D01*
Y333038D01*
X105944Y332382D01*
X107256D01*
X107912Y333038D01*
X142228Y141200D02*
Y144349D01*
X140654D01*
X140129Y143824D01*
Y142774D01*
X140654Y142250D01*
X142228D01*
X141179D02*
X140129Y141200D01*
X136981Y144349D02*
X139080D01*
Y142774D01*
X138030Y143299D01*
X137505D01*
X136981Y142774D01*
Y141725D01*
X137505Y141200D01*
X138555D01*
X139080Y141725D01*
X134357Y141200D02*
Y144349D01*
X135931Y142774D01*
X133832D01*
X142228Y117300D02*
Y120449D01*
X140654D01*
X140129Y119924D01*
Y118874D01*
X140654Y118350D01*
X142228D01*
X141179D02*
X140129Y117300D01*
X136981Y120449D02*
X139080D01*
Y118874D01*
X138030Y119399D01*
X137505D01*
X136981Y118874D01*
Y117825D01*
X137505Y117300D01*
X138555D01*
X139080Y117825D01*
X135931Y119924D02*
X135406Y120449D01*
X134357D01*
X133832Y119924D01*
Y119399D01*
X134357Y118874D01*
X134882D01*
X134357D01*
X133832Y118350D01*
Y117825D01*
X134357Y117300D01*
X135406D01*
X135931Y117825D01*
X142228Y93500D02*
Y96649D01*
X140654D01*
X140129Y96124D01*
Y95074D01*
X140654Y94550D01*
X142228D01*
X141179D02*
X140129Y93500D01*
X136981Y96649D02*
X139080D01*
Y95074D01*
X138030Y95599D01*
X137505D01*
X136981Y95074D01*
Y94025D01*
X137505Y93500D01*
X138555D01*
X139080Y94025D01*
X133832Y96649D02*
X135931D01*
Y95074D01*
X134882Y95599D01*
X134357D01*
X133832Y95074D01*
Y94025D01*
X134357Y93500D01*
X135406D01*
X135931Y94025D01*
X85300Y104823D02*
Y107972D01*
X83726D01*
X83201Y107447D01*
Y106398D01*
X83726Y105873D01*
X85300D01*
X84251D02*
X83201Y104823D01*
X80053Y107972D02*
X82152D01*
Y106398D01*
X81102Y106922D01*
X80578D01*
X80053Y106398D01*
Y105348D01*
X80578Y104823D01*
X81627D01*
X82152Y105348D01*
X76904Y104823D02*
X79003D01*
X76904Y106922D01*
Y107447D01*
X77429Y107972D01*
X78478D01*
X79003Y107447D01*
X84185Y95375D02*
Y98523D01*
X82611D01*
X82086Y97998D01*
Y96949D01*
X82611Y96424D01*
X84185D01*
X83136D02*
X82086Y95375D01*
X78938Y98523D02*
X81037D01*
Y96949D01*
X79987Y97474D01*
X79462D01*
X78938Y96949D01*
Y95899D01*
X79462Y95375D01*
X80512D01*
X81037Y95899D01*
X77888Y95375D02*
X76838D01*
X77363D01*
Y98523D01*
X77888Y97998D01*
X85202Y128741D02*
Y131889D01*
X83628D01*
X83103Y131365D01*
Y130315D01*
X83628Y129790D01*
X85202D01*
X84153D02*
X83103Y128741D01*
X79954Y131889D02*
X82054D01*
Y130315D01*
X81004Y130840D01*
X80479D01*
X79954Y130315D01*
Y129265D01*
X80479Y128741D01*
X81529D01*
X82054Y129265D01*
X78905Y131365D02*
X78380Y131889D01*
X77331D01*
X76806Y131365D01*
Y129265D01*
X77331Y128741D01*
X78380D01*
X78905Y129265D01*
Y131365D01*
X143147Y287419D02*
Y290567D01*
X141573D01*
X141048Y290043D01*
Y288993D01*
X141573Y288468D01*
X143147D01*
X142098D02*
X141048Y287419D01*
X139999Y290043D02*
X139474Y290567D01*
X138424D01*
X137900Y290043D01*
Y289518D01*
X138424Y288993D01*
X138949D01*
X138424D01*
X137900Y288468D01*
Y287944D01*
X138424Y287419D01*
X139474D01*
X139999Y287944D01*
X136850Y290043D02*
X136325Y290567D01*
X135276D01*
X134751Y290043D01*
Y289518D01*
X135276Y288993D01*
X134751Y288468D01*
Y287944D01*
X135276Y287419D01*
X136325D01*
X136850Y287944D01*
Y288468D01*
X136325Y288993D01*
X136850Y289518D01*
Y290043D01*
X136325Y288993D02*
X135276D01*
X188900Y317419D02*
Y320567D01*
X187326D01*
X186801Y320043D01*
Y318993D01*
X187326Y318468D01*
X188900D01*
X187850D02*
X186801Y317419D01*
X185751Y317944D02*
X185227Y317419D01*
X184177D01*
X183652Y317944D01*
Y320043D01*
X184177Y320567D01*
X185227D01*
X185751Y320043D01*
Y319518D01*
X185227Y318993D01*
X183652D01*
X230052Y320866D02*
Y317717D01*
X228478D01*
X227953Y318242D01*
Y320341D01*
X228478Y320866D01*
X230052D01*
X226903Y317717D02*
X225854D01*
X226378D01*
Y320866D01*
X226903Y320341D01*
X169901Y280143D02*
X170426Y280667D01*
X171475D01*
X172000Y280143D01*
Y278044D01*
X171475Y277519D01*
X170426D01*
X169901Y278044D01*
X168851Y280143D02*
X168327Y280667D01*
X167277D01*
X166752Y280143D01*
Y279618D01*
X167277Y279093D01*
X167802D01*
X167277D01*
X166752Y278568D01*
Y278044D01*
X167277Y277519D01*
X168327D01*
X168851Y278044D01*
X165703D02*
X165178Y277519D01*
X164128D01*
X163604Y278044D01*
Y280143D01*
X164128Y280667D01*
X165178D01*
X165703Y280143D01*
Y279618D01*
X165178Y279093D01*
X163604D01*
X191001Y280343D02*
X191526Y280868D01*
X192575D01*
X193100Y280343D01*
Y278244D01*
X192575Y277719D01*
X191526D01*
X191001Y278244D01*
X189951Y280343D02*
X189427Y280868D01*
X188377D01*
X187852Y280343D01*
Y279818D01*
X188377Y279293D01*
X188902D01*
X188377D01*
X187852Y278768D01*
Y278244D01*
X188377Y277719D01*
X189427D01*
X189951Y278244D01*
X186803Y280343D02*
X186278Y280868D01*
X185229D01*
X184704Y280343D01*
Y279818D01*
X185229Y279293D01*
X184704Y278768D01*
Y278244D01*
X185229Y277719D01*
X186278D01*
X186803Y278244D01*
Y278768D01*
X186278Y279293D01*
X186803Y279818D01*
Y280343D01*
X186278Y279293D02*
X185229D01*
X226800Y277619D02*
Y280767D01*
X225226D01*
X224701Y280243D01*
Y279193D01*
X225226Y278668D01*
X226800D01*
X225750D02*
X224701Y277619D01*
X221552D02*
X223651D01*
X221552Y279718D01*
Y280243D01*
X222077Y280767D01*
X223127D01*
X223651Y280243D01*
X220503D02*
X219978Y280767D01*
X218929D01*
X218404Y280243D01*
Y278144D01*
X218929Y277619D01*
X219978D01*
X220503Y278144D01*
Y280243D01*
X205800Y277719D02*
Y280868D01*
X204226D01*
X203701Y280343D01*
Y279293D01*
X204226Y278768D01*
X205800D01*
X204750D02*
X203701Y277719D01*
X202651D02*
X201602D01*
X202127D01*
Y280868D01*
X202651Y280343D01*
X198453Y277719D02*
Y280868D01*
X200028Y279293D01*
X197929D01*
X143289Y212993D02*
Y216141D01*
X141714D01*
X141190Y215616D01*
Y214567D01*
X141714Y214042D01*
X143289D01*
X142239D02*
X141190Y212993D01*
X140140Y215616D02*
X139615Y216141D01*
X138566D01*
X138041Y215616D01*
Y215092D01*
X138566Y214567D01*
X139091D01*
X138566D01*
X138041Y214042D01*
Y213517D01*
X138566Y212993D01*
X139615D01*
X140140Y213517D01*
X134892Y216141D02*
X135942Y215616D01*
X136992Y214567D01*
Y213517D01*
X136467Y212993D01*
X135417D01*
X134892Y213517D01*
Y214042D01*
X135417Y214567D01*
X136992D01*
X202100Y317419D02*
Y320567D01*
X200526D01*
X200001Y320043D01*
Y318993D01*
X200526Y318468D01*
X202100D01*
X201050D02*
X200001Y317419D01*
X196852D02*
X198951D01*
X196852Y319518D01*
Y320043D01*
X197377Y320567D01*
X198427D01*
X198951Y320043D01*
X193704Y317419D02*
X195803D01*
X193704Y319518D01*
Y320043D01*
X194228Y320567D01*
X195278D01*
X195803Y320043D01*
X80001Y212993D02*
Y216141D01*
X78427D01*
X77902Y215616D01*
Y214567D01*
X78427Y214042D01*
X80001D01*
X78952D02*
X77902Y212993D01*
X76853Y215616D02*
X76328Y216141D01*
X75278D01*
X74754Y215616D01*
Y215092D01*
X75278Y214567D01*
X75803D01*
X75278D01*
X74754Y214042D01*
Y213517D01*
X75278Y212993D01*
X76328D01*
X76853Y213517D01*
X73704D02*
X73179Y212993D01*
X72130D01*
X71605Y213517D01*
Y215616D01*
X72130Y216141D01*
X73179D01*
X73704Y215616D01*
Y215092D01*
X73179Y214567D01*
X71605D01*
X201595Y297819D02*
Y300968D01*
X200021D01*
X199496Y300443D01*
Y299393D01*
X200021Y298868D01*
X201595D01*
X200546D02*
X199496Y297819D01*
X196348D02*
X198447D01*
X196348Y299918D01*
Y300443D01*
X196872Y300968D01*
X197922D01*
X198447Y300443D01*
X195298Y297819D02*
X194249D01*
X194773D01*
Y300968D01*
X195298Y300443D01*
X190292Y297819D02*
Y300968D01*
X188718D01*
X188193Y300443D01*
Y299393D01*
X188718Y298868D01*
X190292D01*
X189243D02*
X188193Y297819D01*
X187144D02*
X186094D01*
X186619D01*
Y300968D01*
X187144Y300443D01*
X184520Y298344D02*
X183995Y297819D01*
X182945D01*
X182421Y298344D01*
Y300443D01*
X182945Y300968D01*
X183995D01*
X184520Y300443D01*
Y299918D01*
X183995Y299393D01*
X182421D01*
X85202Y152363D02*
Y155511D01*
X83628D01*
X83103Y154987D01*
Y153937D01*
X83628Y153412D01*
X85202D01*
X84153D02*
X83103Y152363D01*
X80479D02*
Y155511D01*
X82054Y153937D01*
X79954D01*
X77331Y152363D02*
Y155511D01*
X78905Y153937D01*
X76806D01*
X236247Y82791D02*
Y85940D01*
X234673D01*
X234148Y85415D01*
Y84366D01*
X234673Y83841D01*
X236247D01*
X235198D02*
X234148Y82791D01*
X233099Y85415D02*
X232574Y85940D01*
X231524D01*
X231000Y85415D01*
Y84890D01*
X231524Y84366D01*
X232049D01*
X231524D01*
X231000Y83841D01*
Y83316D01*
X231524Y82791D01*
X232574D01*
X233099Y83316D01*
X229950Y85415D02*
X229425Y85940D01*
X228376D01*
X227851Y85415D01*
Y84890D01*
X228376Y84366D01*
X228901D01*
X228376D01*
X227851Y83841D01*
Y83316D01*
X228376Y82791D01*
X229425D01*
X229950Y83316D01*
X85300Y118997D02*
Y122145D01*
X83726D01*
X83201Y121620D01*
Y120571D01*
X83726Y120046D01*
X85300D01*
X84251D02*
X83201Y118997D01*
X80578D02*
Y122145D01*
X82152Y120571D01*
X80053D01*
X79003Y119521D02*
X78478Y118997D01*
X77429D01*
X76904Y119521D01*
Y121620D01*
X77429Y122145D01*
X78478D01*
X79003Y121620D01*
Y121096D01*
X78478Y120571D01*
X76904D01*
X257147Y82743D02*
Y85892D01*
X255573D01*
X255048Y85367D01*
Y84318D01*
X255573Y83793D01*
X257147D01*
X256098D02*
X255048Y82743D01*
X252424D02*
Y85892D01*
X253999Y84318D01*
X251900D01*
X248751Y82743D02*
X250850D01*
X248751Y84842D01*
Y85367D01*
X249276Y85892D01*
X250325D01*
X250850Y85367D01*
X143147Y265819D02*
Y268968D01*
X141573D01*
X141048Y268443D01*
Y267393D01*
X141573Y266868D01*
X143147D01*
X142098D02*
X141048Y265819D01*
X139999Y268443D02*
X139474Y268968D01*
X138424D01*
X137900Y268443D01*
Y267918D01*
X138424Y267393D01*
X138949D01*
X138424D01*
X137900Y266868D01*
Y266344D01*
X138424Y265819D01*
X139474D01*
X139999Y266344D01*
X134751Y268968D02*
X136850D01*
Y267393D01*
X135801Y267918D01*
X135276D01*
X134751Y267393D01*
Y266344D01*
X135276Y265819D01*
X136325D01*
X136850Y266344D01*
X200850Y82890D02*
Y86038D01*
X199276D01*
X198751Y85514D01*
Y84464D01*
X199276Y83939D01*
X200850D01*
X199801D02*
X198751Y82890D01*
X197702Y85514D02*
X197177Y86038D01*
X196127D01*
X195603Y85514D01*
Y84989D01*
X196127Y84464D01*
X196652D01*
X196127D01*
X195603Y83939D01*
Y83415D01*
X196127Y82890D01*
X197177D01*
X197702Y83415D01*
X192979Y82890D02*
Y86038D01*
X194553Y84464D01*
X192454D01*
X173151Y82988D02*
Y86137D01*
X171576D01*
X171051Y85612D01*
Y84562D01*
X171576Y84038D01*
X173151D01*
X172101D02*
X171051Y82988D01*
X168428D02*
Y86137D01*
X170002Y84562D01*
X167903D01*
X166853Y82988D02*
X165804D01*
X166329D01*
Y86137D01*
X166853Y85612D01*
X85300Y142815D02*
Y145964D01*
X83726D01*
X83201Y145439D01*
Y144390D01*
X83726Y143865D01*
X85300D01*
X84251D02*
X83201Y142815D01*
X80578D02*
Y145964D01*
X82152Y144390D01*
X80053D01*
X79003Y145439D02*
X78478Y145964D01*
X77429D01*
X76904Y145439D01*
Y144914D01*
X77429Y144390D01*
X77954D01*
X77429D01*
X76904Y143865D01*
Y143340D01*
X77429Y142815D01*
X78478D01*
X79003Y143340D01*
X181000Y121849D02*
Y118700D01*
X179426D01*
X178901Y119225D01*
Y121324D01*
X179426Y121849D01*
X181000D01*
X175752Y118700D02*
X177851D01*
X175752Y120799D01*
Y121324D01*
X176277Y121849D01*
X177327D01*
X177851Y121324D01*
X246800Y109249D02*
Y106100D01*
X245226D01*
X244701Y106625D01*
Y108724D01*
X245226Y109249D01*
X246800D01*
X243651Y108724D02*
X243127Y109249D01*
X242077D01*
X241552Y108724D01*
Y108199D01*
X242077Y107674D01*
X242602D01*
X242077D01*
X241552Y107150D01*
Y106625D01*
X242077Y106100D01*
X243127D01*
X243651Y106625D01*
X236616Y158526D02*
X237141Y159051D01*
X238190D01*
X238715Y158526D01*
Y156427D01*
X238190Y155902D01*
X237141D01*
X236616Y156427D01*
X235567Y158526D02*
X235042Y159051D01*
X233992D01*
X233468Y158526D01*
Y158001D01*
X233992Y157477D01*
X234517D01*
X233992D01*
X233468Y156952D01*
Y156427D01*
X233992Y155902D01*
X235042D01*
X235567Y156427D01*
X230319Y159051D02*
X232418D01*
Y157477D01*
X231368Y158001D01*
X230844D01*
X230319Y157477D01*
Y156427D01*
X230844Y155902D01*
X231893D01*
X232418Y156427D01*
X83635Y178819D02*
X84159Y179344D01*
X85209D01*
X85733Y178819D01*
Y176720D01*
X85209Y176195D01*
X84159D01*
X83635Y176720D01*
X81011Y176195D02*
Y179344D01*
X82585Y177770D01*
X80486D01*
X79436Y178819D02*
X78912Y179344D01*
X77862D01*
X77337Y178819D01*
Y176720D01*
X77862Y176195D01*
X78912D01*
X79436Y176720D01*
Y178819D01*
X99031Y268443D02*
X99556Y268968D01*
X100605D01*
X101130Y268443D01*
Y266344D01*
X100605Y265819D01*
X99556D01*
X99031Y266344D01*
X95883Y265819D02*
X97982D01*
X95883Y267918D01*
Y268443D01*
X96407Y268968D01*
X97457D01*
X97982Y268443D01*
X93259Y265819D02*
Y268968D01*
X94833Y267393D01*
X92734D01*
X282301Y323543D02*
X282826Y324067D01*
X283875D01*
X284400Y323543D01*
Y321444D01*
X283875Y320919D01*
X282826D01*
X282301Y321444D01*
X281251Y323543D02*
X280727Y324067D01*
X279677D01*
X279152Y323543D01*
Y323018D01*
X279677Y322493D01*
X280202D01*
X279677D01*
X279152Y321968D01*
Y321444D01*
X279677Y320919D01*
X280727D01*
X281251Y321444D01*
X278103Y324067D02*
X276004D01*
Y323543D01*
X278103Y321444D01*
Y320919D01*
X237420Y300148D02*
X236895Y299623D01*
X235846D01*
X235321Y300148D01*
Y302247D01*
X235846Y302772D01*
X236895D01*
X237420Y302247D01*
X238470Y300148D02*
X238995Y299623D01*
X240044D01*
X240569Y300148D01*
Y300673D01*
X240044Y301197D01*
X239519D01*
X240044D01*
X240569Y301722D01*
Y302247D01*
X240044Y302772D01*
X238995D01*
X238470Y302247D01*
X243717Y302772D02*
X241618D01*
X243717Y300673D01*
Y300148D01*
X243193Y299623D01*
X242143D01*
X241618Y300148D01*
X181701Y111924D02*
X182226Y112449D01*
X183275D01*
X183800Y111924D01*
Y109825D01*
X183275Y109300D01*
X182226D01*
X181701Y109825D01*
X178552Y109300D02*
X180651D01*
X178552Y111399D01*
Y111924D01*
X179077Y112449D01*
X180127D01*
X180651Y111924D01*
X177503Y112449D02*
X175404D01*
Y111924D01*
X177503Y109825D01*
Y109300D01*
X217801Y235724D02*
X218326Y236248D01*
X219375D01*
X219900Y235724D01*
Y233625D01*
X219375Y233100D01*
X218326D01*
X217801Y233625D01*
X216751D02*
X216227Y233100D01*
X215177D01*
X214652Y233625D01*
Y235724D01*
X215177Y236248D01*
X216227D01*
X216751Y235724D01*
Y235199D01*
X216227Y234674D01*
X214652D01*
X171401Y235684D02*
X171926Y236209D01*
X172975D01*
X173500Y235684D01*
Y233585D01*
X172975Y233061D01*
X171926D01*
X171401Y233585D01*
X168252Y233061D02*
X170351D01*
X168252Y235160D01*
Y235684D01*
X168777Y236209D01*
X169827D01*
X170351Y235684D01*
X167203D02*
X166678Y236209D01*
X165629D01*
X165104Y235684D01*
Y233585D01*
X165629Y233061D01*
X166678D01*
X167203Y233585D01*
Y235684D01*
X229901Y235724D02*
X230426Y236248D01*
X231475D01*
X232000Y235724D01*
Y233625D01*
X231475Y233100D01*
X230426D01*
X229901Y233625D01*
X228851Y235724D02*
X228327Y236248D01*
X227277D01*
X226752Y235724D01*
Y235199D01*
X227277Y234674D01*
X226752Y234149D01*
Y233625D01*
X227277Y233100D01*
X228327D01*
X228851Y233625D01*
Y234149D01*
X228327Y234674D01*
X228851Y235199D01*
Y235724D01*
X228327Y234674D02*
X227277D01*
X183101Y235684D02*
X183626Y236209D01*
X184675D01*
X185200Y235684D01*
Y233585D01*
X184675Y233061D01*
X183626D01*
X183101Y233585D01*
X182051Y233061D02*
X181002D01*
X181527D01*
Y236209D01*
X182051Y235684D01*
X179428Y233585D02*
X178903Y233061D01*
X177853D01*
X177329Y233585D01*
Y235684D01*
X177853Y236209D01*
X178903D01*
X179428Y235684D01*
Y235160D01*
X178903Y234635D01*
X177329D01*
X247801Y117824D02*
X248326Y118349D01*
X249375D01*
X249900Y117824D01*
Y115725D01*
X249375Y115200D01*
X248326D01*
X247801Y115725D01*
X244652Y115200D02*
X246751D01*
X244652Y117299D01*
Y117824D01*
X245177Y118349D01*
X246227D01*
X246751Y117824D01*
X243603Y115725D02*
X243078Y115200D01*
X242028D01*
X241504Y115725D01*
Y117824D01*
X242028Y118349D01*
X243078D01*
X243603Y117824D01*
Y117299D01*
X243078Y116774D01*
X241504D01*
X241901Y235724D02*
X242426Y236248D01*
X243475D01*
X244000Y235724D01*
Y233625D01*
X243475Y233100D01*
X242426D01*
X241901Y233625D01*
X240851Y236248D02*
X238752D01*
Y235724D01*
X240851Y233625D01*
Y233100D01*
X195101Y235724D02*
X195626Y236248D01*
X196675D01*
X197200Y235724D01*
Y233625D01*
X196675Y233100D01*
X195626D01*
X195101Y233625D01*
X194051Y233100D02*
X193002D01*
X193527D01*
Y236248D01*
X194051Y235724D01*
X191428D02*
X190903Y236248D01*
X189853D01*
X189329Y235724D01*
Y235199D01*
X189853Y234674D01*
X189329Y234149D01*
Y233625D01*
X189853Y233100D01*
X190903D01*
X191428Y233625D01*
Y234149D01*
X190903Y234674D01*
X191428Y235199D01*
Y235724D01*
X190903Y234674D02*
X189853D01*
X247801Y126824D02*
X248326Y127349D01*
X249375D01*
X249900Y126824D01*
Y124725D01*
X249375Y124200D01*
X248326D01*
X247801Y124725D01*
X244652Y124200D02*
X246751D01*
X244652Y126299D01*
Y126824D01*
X245177Y127349D01*
X246227D01*
X246751Y126824D01*
X243603D02*
X243078Y127349D01*
X242028D01*
X241504Y126824D01*
Y126299D01*
X242028Y125774D01*
X241504Y125250D01*
Y124725D01*
X242028Y124200D01*
X243078D01*
X243603Y124725D01*
Y125250D01*
X243078Y125774D01*
X243603Y126299D01*
Y126824D01*
X243078Y125774D02*
X242028D01*
X253901Y235724D02*
X254426Y236248D01*
X255475D01*
X256000Y235724D01*
Y233625D01*
X255475Y233100D01*
X254426D01*
X253901Y233625D01*
X250752Y236248D02*
X251802Y235724D01*
X252851Y234674D01*
Y233625D01*
X252327Y233100D01*
X251277D01*
X250752Y233625D01*
Y234149D01*
X251277Y234674D01*
X252851D01*
X207201Y235724D02*
X207726Y236248D01*
X208775D01*
X209300Y235724D01*
Y233625D01*
X208775Y233100D01*
X207726D01*
X207201Y233625D01*
X206151Y233100D02*
X205102D01*
X205627D01*
Y236248D01*
X206151Y235724D01*
X203528Y236248D02*
X201429D01*
Y235724D01*
X203528Y233625D01*
Y233100D01*
D12*
X224409Y304331D02*
X231496D01*
X224409D02*
Y307480D01*
X231496Y304331D02*
Y307480D01*
X172646Y116732D02*
Y123819D01*
X169496Y116732D02*
X172646D01*
X169496Y123819D02*
X172646D01*
X226969Y104134D02*
Y111221D01*
X230118D01*
X226969Y104134D02*
X230118D01*
M02*
